<svg width="25" height="30" viewBox="-1 -0 24 29" fill="none" xmlns="http://www.w3.org/2000/svg">
<path d="M10.8442 0C17.2232 0 21.6885 2.2782 21.6885 4.37415C21.6885 6.47009 17.2232 8.7483 10.8442 8.7483C4.46527 8.7483 0 6.47009 0 4.37415C0 2.2782 4.46527 0 10.8442 0Z" fill="#FF3D00"/>
<path d="M11.1178 23.4214C7.65494 24.2416 4.10094 25.1529 1.82274 26.6109C0.729199 25.8819 0.0913086 25.0618 0.0913086 24.3327C0.0913086 20.8699 5.83237 19.5941 11.3912 18.3183C15.4008 17.407 19.5016 16.4957 21.7798 14.582V17.5893C21.6886 20.961 16.3121 22.2368 11.1178 23.4214Z" fill="#FF3D00"/>
<path d="M10.9354 16.5848C6.74348 17.4961 2.36933 18.4985 0 20.5945V19.8654C0 13.851 6.56123 12.3018 12.9402 10.8438C17.5877 9.75024 19.7748 9.20347 21.6885 7.6543V11.026C21.6885 14.1244 16.2208 15.4002 10.9354 16.5848Z" fill="#FF3D00"/>
<path d="M21.6885 21.4141C19.4103 23.3278 15.4007 24.239 11.4822 25.2414C8.65724 25.8793 5.83227 26.6084 3.73633 27.6108C5.55889 28.2487 8.01933 28.7043 10.7532 28.7043C17.041 28.7043 21.5974 26.4261 21.5974 24.3302V21.4141H21.6885Z" fill="#FF3D00"/>
</svg>
